<?xml version="1.0" encoding="UTF-8"?>
<svg id="NY" xmlns="http://www.w3.org/2000/svg" viewBox="0 0 857.63 310.53">
  <defs>
    <style>
      .cls-1 {
        fill: none;
        stroke: #fff;
        stroke-miterlimit: 10;
      }

      .cls-2 {
        fill: #fff;
        stroke-width: 0px;
      }
    </style>
  </defs>
  <path class="cls-2" d="m166.98,140.55v11.11h-10.27v-41h9.69v-27.85h-11.03v16.82h-10.22v-16.82h-11.03v16.82h-10.19v-16.82h-11.06v27.85h9.69v41h-10.24v-11.11h-11.03v15.94h2.88v41.6h70.96v-41.6h2.9v-15.94h-11.03Zm-30.13-18.59v-4.72l2.78-4.46,2.79,4.46v11.49h-5.57v-6.77Zm6.37,71.36h-7.15v-17.4l3.56-5.73,3.59,5.73v17.4Z"/>
  <path class="cls-1" d="m77.32,77.48v56.49c0,70.15,62.31,99.29,62.31,99.29,0,0,62.31-29.14,62.31-99.29v-56.49h-124.63Z"/>
  <g>
    <path class="cls-2" d="m250.65,106.58h-6.84v-29.06h16.89v5.62h-10.05v6.59h9.32v5.62h-9.32v11.23Z"/>
    <path class="cls-2" d="m268.56,75.36c.98,0,1.83.22,2.56.65.73.44,1.1,1.28,1.1,2.53s-.37,2.06-1.1,2.5c-.73.45-1.59.67-2.56.67-1.03,0-1.91-.22-2.63-.67-.72-.45-1.08-1.28-1.08-2.5s.36-2.09,1.08-2.53c.72-.43,1.59-.65,2.63-.65Zm3.38,8.87v22.35h-6.84v-22.35h6.84Z"/>
    <path class="cls-2" d="m290.97,83.83c2.36,0,4.27.65,5.72,1.93s2.18,3.37,2.18,6.25v14.57h-6.84v-12.66c0-1.55-.26-2.71-.77-3.5-.52-.79-1.33-1.18-2.44-1.18-1.65,0-2.78.62-3.38,1.85-.6,1.23-.9,3.01-.9,5.31v10.18h-6.88v-22.35h5.21l.94,2.89h.33c.71-1.08,1.66-1.91,2.85-2.46,1.19-.56,2.52-.83,3.99-.83Z"/>
    <path class="cls-2" d="m317.79,83.83c2.36,0,4.27.65,5.72,1.93s2.18,3.37,2.18,6.25v14.57h-6.84v-12.66c0-1.55-.26-2.71-.77-3.5-.52-.79-1.33-1.18-2.44-1.18-1.65,0-2.78.62-3.38,1.85-.6,1.23-.9,3.01-.9,5.31v10.18h-6.88v-22.35h5.21l.94,2.89h.33c.71-1.08,1.66-1.91,2.85-2.46,1.19-.56,2.52-.83,3.99-.83Z"/>
    <path class="cls-2" d="m358.05,83.83c2.55,0,4.48.65,5.8,1.93,1.32,1.29,1.97,3.37,1.97,6.25v14.57h-6.84v-12.66c0-1.63-.25-2.81-.75-3.56s-1.27-1.12-2.3-1.12c-1.44,0-2.46.56-3.05,1.69-.6,1.13-.9,2.72-.9,4.78v10.87h-6.84v-12.66c0-3.12-1.01-4.68-3.01-4.68-1.52,0-2.56.62-3.11,1.85s-.83,3.01-.83,5.31v10.18h-6.88v-22.35h5.21l.98,2.81h.28c.62-1.03,1.51-1.82,2.67-2.38,1.15-.56,2.46-.83,3.93-.83,3.2,0,5.44,1.06,6.72,3.18h.41c.71-1.06,1.64-1.85,2.81-2.38,1.17-.53,2.42-.8,3.74-.8Z"/>
    <path class="cls-2" d="m381.32,83.79c2.9,0,5.16.68,6.76,2.03,1.6,1.36,2.4,3.34,2.4,5.94v14.82h-4.76l-1.34-3.01h-.16c-.95,1.22-1.95,2.1-3.01,2.63-1.06.53-2.51.79-4.36.79-1.98,0-3.62-.58-4.93-1.75-1.3-1.17-1.95-2.97-1.95-5.41s.83-4.12,2.5-5.27c1.67-1.15,4.12-1.8,7.35-1.93l3.83-.12v-.65c0-1.09-.28-1.87-.83-2.36s-1.32-.73-2.3-.73-2,.16-3.05.47-2.13.7-3.21,1.16l-2.08-4.56c1.22-.65,2.6-1.15,4.15-1.51,1.55-.35,3.22-.53,5.01-.53Zm.24,12.7c-1.71.05-2.9.36-3.58.92-.68.56-1.02,1.31-1.02,2.26,0,.84.24,1.45.73,1.83s1.11.57,1.87.57c1.14,0,2.1-.35,2.89-1.04.79-.69,1.18-1.64,1.18-2.83v-1.79l-2.08.08Z"/>
    <path class="cls-2" d="m409.08,83.83c.35,0,.75.02,1.18.06.43.04.77.09,1.02.14l-.57,6.43c-.24-.05-.56-.1-.94-.14-.38-.04-.8-.06-1.26-.06-.87,0-1.73.14-2.58.41-.86.27-1.56.78-2.12,1.53-.56.75-.83,1.81-.83,3.2v11.19h-6.88v-22.35h5.17l1.06,3.66h.29c.65-1.11,1.55-2.07,2.69-2.87s2.4-1.2,3.79-1.2Z"/>
    <path class="cls-2" d="m421.63,88.71c0,.87-.03,1.79-.1,2.75-.07.96-.16,1.89-.27,2.79h.12c.35-.54.75-1.12,1.2-1.75.45-.62.89-1.19,1.32-1.71l5.7-6.55h7.65l-8.34,9.61,8.87,12.74h-7.86l-5.74-8.55-2.56,2v6.55h-6.88v-30.94h6.88v13.07Z"/>
    <path class="cls-2" d="m464.29,89.37h-5.05v17.22h-6.84v-17.22h-3.17v-3.34l3.26-1.75v-1.06c0-2.88.65-4.89,1.95-6.05,1.3-1.15,3.23-1.73,5.78-1.73,1.17,0,2.23.1,3.2.29.96.19,1.85.42,2.67.69l-1.63,4.72c-.41-.11-.87-.22-1.38-.33-.52-.11-1.09-.16-1.71-.16-.73,0-1.27.22-1.61.67-.34.45-.51,1.08-.51,1.89v1.02h5.05v5.13Z"/>
    <path class="cls-2" d="m466.16,84.24h7.33l4.03,12.66c.13.46.25.97.34,1.53.09.56.17,1.12.23,1.69h.12c.08-.62.18-1.2.3-1.73.12-.53.25-1.01.39-1.44l4.03-12.7h7.16l-9.2,24.55c-.92,2.5-2.18,4.38-3.77,5.66-1.59,1.28-3.64,1.91-6.17,1.91-.7,0-1.31-.03-1.81-.1-.5-.07-.94-.14-1.32-.22v-5.41c.3.05.66.11,1.08.16.42.05.86.08,1.32.08,1.28,0,2.25-.38,2.93-1.14.68-.76,1.21-1.66,1.59-2.69l.24-.69-8.83-22.1Z"/>
    <path class="cls-2" d="m500.11,106.58h-6.88v-30.94h6.88v30.94Z"/>
    <path class="cls-2" d="m512.68,88.71c0,.87-.03,1.79-.1,2.75-.07.96-.16,1.89-.27,2.79h.12c.35-.54.75-1.12,1.2-1.75.45-.62.89-1.19,1.32-1.71l5.7-6.55h7.65l-8.34,9.61,8.87,12.74h-7.86l-5.74-8.55-2.56,2v6.55h-6.88v-30.94h6.88v13.07Z"/>
    <path class="cls-2" d="m540.46,83.83c3.15,0,5.64.86,7.49,2.59,1.85,1.72,2.77,4.25,2.77,7.59v3.18h-14.13c.05,1.47.53,2.63,1.42,3.5.9.87,2.17,1.3,3.83,1.3,1.41,0,2.71-.14,3.89-.41,1.18-.27,2.39-.71,3.64-1.3v5.09c-1.11.57-2.29.98-3.52,1.24s-2.76.39-4.58.39c-2.25,0-4.25-.41-6-1.22s-3.12-2.07-4.11-3.77-1.49-3.85-1.49-6.45.45-4.82,1.34-6.55c.9-1.74,2.15-3.03,3.77-3.89,1.61-.86,3.51-1.28,5.68-1.28Zm.12,4.76c-1.06,0-1.93.33-2.63,1-.69.67-1.11,1.72-1.24,3.16h7.69c-.03-1.17-.35-2.15-.98-2.95-.62-.8-1.57-1.2-2.85-1.2Z"/>
    <path class="cls-2" d="m571.64,99.83c0,2.2-.77,3.94-2.3,5.23-1.53,1.29-3.93,1.93-7.18,1.93-1.57,0-2.95-.09-4.13-.28-1.18-.19-2.37-.53-3.56-1.02v-5.54c1.3.6,2.66,1.05,4.07,1.36,1.41.31,2.6.47,3.58.47,1.03,0,1.78-.14,2.24-.41s.69-.65.69-1.14c0-.35-.12-.66-.35-.94-.23-.27-.69-.58-1.38-.92-.69-.34-1.72-.79-3.07-1.36-1.33-.57-2.42-1.15-3.28-1.75-.85-.6-1.49-1.31-1.91-2.14-.42-.83-.63-1.86-.63-3.11,0-2.12.82-3.71,2.46-4.78s3.82-1.61,6.53-1.61c1.44,0,2.79.15,4.07.45s2.59.76,3.95,1.38l-1.95,4.64c-1.11-.49-2.19-.88-3.24-1.18s-1.99-.45-2.83-.45c-1.57,0-2.36.41-2.36,1.22,0,.3.12.58.35.83.23.26.68.54,1.34.83.66.3,1.63.72,2.91,1.26,1.28.51,2.36,1.06,3.26,1.65.9.58,1.57,1.29,2.03,2.14.46.84.69,1.91.69,3.21Z"/>
    <path class="cls-2" d="m583.06,88.71c0,.87-.03,1.79-.1,2.75-.07.96-.16,1.89-.27,2.79h.12c.35-.54.75-1.12,1.2-1.75.45-.62.89-1.19,1.32-1.71l5.7-6.55h7.65l-8.34,9.61,8.87,12.74h-7.86l-5.74-8.55-2.56,2v6.55h-6.88v-30.94h6.88v13.07Z"/>
    <path class="cls-2" d="m621.99,95.35c0,3.74-.98,6.62-2.95,8.63-1.97,2.01-4.66,3.01-8.08,3.01-2.12,0-4-.45-5.64-1.36-1.64-.91-2.93-2.23-3.87-3.95s-1.4-3.83-1.4-6.33c0-3.69.98-6.53,2.95-8.53s4.66-2.99,8.08-2.99c2.12,0,4,.45,5.64,1.34s2.93,2.2,3.87,3.91,1.4,3.8,1.4,6.27Zm-14.98,0c0,2.09.31,3.67.94,4.74.62,1.07,1.65,1.61,3.09,1.61s2.43-.54,3.05-1.61c.62-1.07.94-2.65.94-4.74s-.31-3.62-.94-4.66c-.62-1.04-1.66-1.57-3.09-1.57s-2.43.52-3.05,1.57-.94,2.6-.94,4.66Z"/>
    <path class="cls-2" d="m653.32,83.83c2.55,0,4.48.65,5.8,1.93,1.32,1.29,1.97,3.37,1.97,6.25v14.57h-6.84v-12.66c0-1.63-.25-2.81-.75-3.56s-1.27-1.12-2.3-1.12c-1.44,0-2.46.56-3.05,1.69-.6,1.13-.9,2.72-.9,4.78v10.87h-6.84v-12.66c0-3.12-1.01-4.68-3.01-4.68-1.52,0-2.56.62-3.11,1.85s-.83,3.01-.83,5.31v10.18h-6.88v-22.35h5.21l.98,2.81h.28c.62-1.03,1.51-1.82,2.67-2.38,1.15-.56,2.46-.83,3.93-.83,3.2,0,5.44,1.06,6.72,3.18h.41c.71-1.06,1.64-1.85,2.81-2.38,1.17-.53,2.42-.8,3.74-.8Z"/>
    <path class="cls-2" d="m693.45,83.83c2.55,0,4.48.65,5.8,1.93,1.32,1.29,1.97,3.37,1.97,6.25v14.57h-6.84v-12.66c0-1.63-.25-2.81-.75-3.56s-1.27-1.12-2.3-1.12c-1.44,0-2.46.56-3.05,1.69-.6,1.13-.9,2.72-.9,4.78v10.87h-6.84v-12.66c0-3.12-1.01-4.68-3.01-4.68-1.52,0-2.56.62-3.11,1.85s-.83,3.01-.83,5.31v10.18h-6.88v-22.35h5.21l.98,2.81h.28c.62-1.03,1.51-1.82,2.67-2.38,1.15-.56,2.46-.83,3.93-.83,3.2,0,5.44,1.06,6.72,3.18h.41c.71-1.06,1.64-1.85,2.81-2.38,1.17-.53,2.42-.8,3.74-.8Z"/>
    <path class="cls-2" d="m727.89,84.24v22.35h-5.21l-.9-2.85h-.41c-.71,1.14-1.67,1.97-2.89,2.48-1.22.52-2.52.77-3.91.77-2.31,0-4.2-.65-5.68-1.95s-2.22-3.38-2.22-6.23v-14.57h6.88v12.66c0,1.52.25,2.67.75,3.46s1.31,1.18,2.42,1.18c1.65,0,2.78-.61,3.38-1.83.6-1.22.9-2.99.9-5.29v-10.18h6.88Z"/>
    <path class="cls-2" d="m746.87,83.83c2.36,0,4.27.65,5.72,1.93,1.45,1.29,2.18,3.37,2.18,6.25v14.57h-6.84v-12.66c0-1.55-.26-2.71-.77-3.5-.52-.79-1.33-1.18-2.44-1.18-1.65,0-2.78.62-3.38,1.85-.6,1.23-.9,3.01-.9,5.31v10.18h-6.88v-22.35h5.21l.94,2.89h.33c.71-1.08,1.66-1.91,2.85-2.46,1.19-.56,2.52-.83,3.99-.83Z"/>
    <path class="cls-2" d="m770.05,83.83c3.15,0,5.64.86,7.49,2.59,1.85,1.72,2.77,4.25,2.77,7.59v3.18h-14.13c.05,1.47.53,2.63,1.42,3.5.9.87,2.17,1.3,3.83,1.3,1.41,0,2.71-.14,3.89-.41,1.18-.27,2.39-.71,3.64-1.3v5.09c-1.11.57-2.29.98-3.52,1.24s-2.76.39-4.58.39c-2.25,0-4.25-.41-6-1.22s-3.12-2.07-4.11-3.77-1.49-3.85-1.49-6.45.45-4.82,1.34-6.55c.9-1.74,2.15-3.03,3.77-3.89,1.61-.86,3.51-1.28,5.68-1.28Zm.12,4.76c-1.06,0-1.93.33-2.63,1-.69.67-1.11,1.72-1.24,3.16h7.69c-.03-1.17-.35-2.15-.98-2.95-.62-.8-1.57-1.2-2.85-1.2Z"/>
    <path class="cls-2" d="m247.28,152.33h-3.31v-26.3h14.69v2.91h-11.38v9.32h10.68v2.91h-10.68v11.16Z"/>
    <path class="cls-2" d="m264.48,125.19c.49,0,.93.16,1.31.5.38.33.57.85.57,1.56s-.19,1.2-.57,1.55c-.38.34-.82.51-1.31.51-.54,0-.99-.17-1.36-.51-.37-.34-.55-.86-.55-1.55s.18-1.23.55-1.56c.37-.33.82-.5,1.36-.5Zm1.58,7.4v19.74h-3.24v-19.74h3.24Z"/>
    <path class="cls-2" d="m281.47,132.22c2.36,0,4.14.57,5.34,1.71,1.2,1.14,1.8,2.99,1.8,5.54v12.85h-3.2v-12.63c0-3.17-1.47-4.75-4.42-4.75-2.18,0-3.69.61-4.53,1.84-.83,1.23-1.25,2.99-1.25,5.3v10.24h-3.24v-19.74h2.61l.48,2.69h.18c.64-1.03,1.52-1.8,2.65-2.3s2.32-.76,3.57-.76Z"/>
    <path class="cls-2" d="m303.88,132.22c2.36,0,4.14.57,5.34,1.71,1.2,1.14,1.8,2.99,1.8,5.54v12.85h-3.2v-12.63c0-3.17-1.47-4.75-4.42-4.75-2.18,0-3.69.61-4.53,1.84-.83,1.23-1.25,2.99-1.25,5.3v10.24h-3.24v-19.74h2.61l.48,2.69h.18c.64-1.03,1.52-1.8,2.65-2.3s2.32-.76,3.57-.76Z"/>
    <path class="cls-2" d="m338.44,132.22c2.23,0,3.9.57,5.01,1.71s1.66,2.99,1.66,5.54v12.85h-3.2v-12.71c0-3.12-1.34-4.68-4.01-4.68-1.92,0-3.28.55-4.11,1.66-.82,1.11-1.23,2.71-1.23,4.83v10.9h-3.2v-12.71c0-3.12-1.35-4.68-4.05-4.68-1.99,0-3.36.61-4.12,1.84-.76,1.23-1.14,2.99-1.14,5.3v10.24h-3.24v-19.74h2.61l.48,2.69h.18c.61-1.03,1.44-1.8,2.49-2.3,1.04-.5,2.15-.76,3.33-.76,3.09,0,5.11,1.11,6.04,3.31h.18c.66-1.13,1.57-1.96,2.71-2.5,1.14-.54,2.35-.81,3.63-.81Z"/>
    <path class="cls-2" d="m358.29,132.26c2.41,0,4.19.53,5.34,1.58,1.15,1.06,1.73,2.74,1.73,5.05v13.44h-2.36l-.63-2.8h-.15c-.86,1.08-1.76,1.88-2.71,2.39s-2.25.77-3.92.77c-1.79,0-3.28-.47-4.46-1.42-1.18-.95-1.77-2.42-1.77-4.44s.77-3.48,2.32-4.55c1.55-1.07,3.93-1.65,7.14-1.75l3.35-.11v-1.18c0-1.64-.36-2.79-1.07-3.42s-1.72-.96-3.02-.96c-1.03,0-2.01.15-2.95.46-.94.31-1.81.66-2.62,1.05l-.99-2.43c.86-.47,1.88-.87,3.06-1.2,1.18-.33,2.41-.5,3.68-.5Zm.96,10.53c-2.46.1-4.15.49-5.1,1.18-.95.69-1.42,1.66-1.42,2.91,0,1.1.34,1.91,1.01,2.43.67.51,1.54.77,2.6.77,1.67,0,3.06-.46,4.16-1.38,1.1-.92,1.66-2.34,1.66-4.26v-1.77l-2.91.11Zm4.24-18.3c-.3.44-.75,1.01-1.36,1.71-.62.7-1.27,1.4-1.97,2.1s-1.34,1.27-1.93,1.71h-2.14v-.44c.37-.47.77-1.02,1.2-1.66s.85-1.29,1.27-1.97c.42-.68.76-1.28,1.03-1.82h3.91v.37Z"/>
    <path class="cls-2" d="m380.35,132.22c.37,0,.77.02,1.2.05.43.04.8.09,1.12.17l-.41,2.98c-.32-.07-.67-.13-1.05-.19-.38-.05-.74-.07-1.09-.07-1.01,0-1.95.27-2.84.83s-1.59,1.33-2.12,2.32c-.53.99-.79,2.15-.79,3.48v10.53h-3.24v-19.74h2.65l.37,3.61h.15c.64-1.08,1.46-2.01,2.47-2.8,1.01-.79,2.2-1.18,3.57-1.18Z"/>
    <path class="cls-2" d="m389.64,138.96c0,.39-.02.91-.05,1.55-.04.64-.07,1.19-.09,1.66h.15c.15-.2.37-.48.66-.85.29-.37.59-.74.9-1.12s.57-.69.79-.94l6.3-6.66h3.79l-7.99,8.43,8.54,11.31h-3.9l-6.85-9.21-2.25,1.95v7.26h-3.2v-27.99h3.2v14.62Z"/>
    <path class="cls-2" d="m409.51,138.96c0,.39-.02.91-.05,1.55-.04.64-.07,1.19-.09,1.66h.15c.15-.2.37-.48.66-.85.29-.37.59-.74.9-1.12s.57-.69.79-.94l6.3-6.66h3.79l-7.99,8.43,8.54,11.31h-3.9l-6.85-9.21-2.25,1.95v7.26h-3.2v-27.99h3.2v14.62Z"/>
    <path class="cls-2" d="m442.51,132.59v19.74h-2.65l-.48-2.61h-.15c-.64,1.03-1.52,1.79-2.65,2.26-1.13.48-2.33.72-3.61.72-2.38,0-4.17-.57-5.38-1.71-1.2-1.14-1.8-2.96-1.8-5.47v-12.93h3.28v12.71c0,3.14,1.46,4.71,4.38,4.71,2.18,0,3.7-.61,4.55-1.84.85-1.23,1.27-2.99,1.27-5.3v-10.27h3.24Z"/>
    <path class="cls-2" d="m467.44,135.09h-4.97v17.24h-3.24v-17.24h-3.46v-1.51l3.46-1.11v-1.14c0-2.55.56-4.39,1.69-5.51,1.13-1.12,2.7-1.68,4.71-1.68.79,0,1.5.07,2.15.2.65.14,1.21.29,1.68.46l-.85,2.54c-.39-.12-.85-.25-1.36-.37-.51-.12-1.04-.18-1.58-.18-1.08,0-1.89.36-2.41,1.09-.53.72-.79,1.86-.79,3.41v1.29h4.97v2.5Z"/>
    <path class="cls-2" d="m469.63,132.59h3.46l4.27,11.23c.37.98.7,1.92,1,2.82.29.9.51,1.75.66,2.56h.15c.15-.61.38-1.42.7-2.41.32-.99.65-2,1-3l4.01-11.19h3.5l-8.51,22.47c-.69,1.86-1.58,3.35-2.67,4.46-1.09,1.11-2.6,1.66-4.51,1.66-.59,0-1.1-.03-1.55-.09-.44-.06-.82-.13-1.14-.2v-2.58c.27.05.59.1.98.15.38.05.78.07,1.2.07,1.13,0,2.04-.32,2.74-.96.7-.64,1.25-1.49,1.64-2.54l1.03-2.61-7.96-19.81Z"/>
    <path class="cls-2" d="m495.12,152.33h-3.24v-27.99h3.24v27.99Z"/>
    <path class="cls-2" d="m504.2,138.96c0,.39-.02.91-.05,1.55-.04.64-.07,1.19-.09,1.66h.15c.15-.2.37-.48.66-.85.29-.37.59-.74.9-1.12s.57-.69.79-.94l6.3-6.66h3.79l-7.99,8.43,8.54,11.31h-3.9l-6.85-9.21-2.25,1.95v7.26h-3.2v-27.99h3.2v14.62Z"/>
    <path class="cls-2" d="m524.06,138.96c0,.39-.02.91-.05,1.55-.04.64-.07,1.19-.09,1.66h.15c.15-.2.37-.48.66-.85.29-.37.59-.74.9-1.12s.57-.69.79-.94l6.3-6.66h3.79l-7.99,8.43,8.54,11.31h-3.9l-6.85-9.21-2.25,1.95v7.26h-3.2v-27.99h3.2v14.62Z"/>
    <path class="cls-2" d="m548,132.26c2.41,0,4.19.53,5.34,1.58,1.15,1.06,1.73,2.74,1.73,5.05v13.44h-2.36l-.63-2.8h-.15c-.86,1.08-1.76,1.88-2.71,2.39s-2.25.77-3.92.77c-1.79,0-3.28-.47-4.46-1.42-1.18-.95-1.77-2.42-1.77-4.44s.77-3.48,2.32-4.55c1.55-1.07,3.93-1.65,7.14-1.75l3.35-.11v-1.18c0-1.64-.36-2.79-1.07-3.42s-1.72-.96-3.02-.96c-1.03,0-2.01.15-2.95.46-.94.31-1.81.66-2.62,1.05l-.99-2.43c.86-.47,1.88-.87,3.06-1.2,1.18-.33,2.41-.5,3.68-.5Zm.96,10.53c-2.46.1-4.15.49-5.1,1.18-.95.69-1.42,1.66-1.42,2.91,0,1.1.34,1.91,1.01,2.43.67.51,1.54.77,2.6.77,1.67,0,3.06-.46,4.16-1.38,1.1-.92,1.66-2.34,1.66-4.26v-1.77l-2.91.11Z"/>
    <path class="cls-2" d="m568.01,132.22c1.3,0,2.47.25,3.52.74,1.04.49,1.93,1.24,2.67,2.25h.18l.44-2.61h2.58v20.07c0,2.82-.72,4.95-2.15,6.37-1.44,1.42-3.66,2.14-6.69,2.14s-5.27-.42-7.11-1.25v-2.98c1.94,1.03,4.37,1.55,7.29,1.55,1.69,0,3.02-.5,3.99-1.49.97-.99,1.46-2.35,1.46-4.07v-.77c0-.3.01-.72.04-1.27.02-.55.05-.94.07-1.16h-.15c-1.33,1.99-3.37,2.98-6.11,2.98-2.55,0-4.55-.9-5.99-2.69-1.44-1.79-2.15-4.3-2.15-7.51s.72-5.64,2.15-7.49c1.44-1.85,3.42-2.78,5.95-2.78Zm.44,2.73c-1.64,0-2.92.66-3.83,1.97-.91,1.31-1.36,3.19-1.36,5.62s.45,4.29,1.34,5.58c.9,1.29,2.2,1.93,3.92,1.93,1.99,0,3.44-.53,4.35-1.6.91-1.07,1.36-2.79,1.36-5.17v-.77c0-2.7-.47-4.63-1.4-5.8s-2.39-1.75-4.38-1.75Z"/>
    <path class="cls-2" d="m584.94,125.19c.49,0,.93.16,1.31.5.38.33.57.85.57,1.56s-.19,1.2-.57,1.55c-.38.34-.82.51-1.31.51-.54,0-.99-.17-1.36-.51-.37-.34-.55-.86-.55-1.55s.18-1.23.55-1.56c.37-.33.82-.5,1.36-.5Zm1.58,7.4v19.74h-3.24v-19.74h3.24Z"/>
    <path class="cls-2" d="m600.12,132.22c1.69,0,3.15.37,4.37,1.11s2.15,1.77,2.8,3.11c.65,1.34.98,2.9.98,4.69v1.95h-13.52c.05,2.23.62,3.93,1.71,5.1s2.62,1.75,4.59,1.75c1.25,0,2.36-.12,3.33-.35.97-.23,1.97-.57,3-1.01v2.84c-1.01.44-2,.77-2.98.97s-2.15.31-3.5.31c-1.87,0-3.52-.38-4.95-1.14-1.44-.76-2.55-1.9-3.35-3.41-.8-1.51-1.2-3.36-1.2-5.54s.36-4.01,1.09-5.56c.72-1.55,1.74-2.74,3.06-3.57s2.84-1.25,4.58-1.25Zm-.04,2.65c-1.55,0-2.77.5-3.66,1.49-.9.99-1.43,2.38-1.6,4.14h10.06c-.02-1.67-.42-3.03-1.18-4.07-.76-1.04-1.96-1.57-3.61-1.57Z"/>
    <path class="cls-2" d="m616.35,152.33h-3.24v-27.99h3.24v27.99Z"/>
    <path class="cls-2" d="m629.45,152.7c-2.46,0-4.42-.85-5.89-2.56-1.47-1.71-2.21-4.25-2.21-7.64s.74-5.95,2.23-7.68c1.49-1.73,3.46-2.6,5.91-2.6,1.52,0,2.77.28,3.74.85.97.56,1.76,1.25,2.38,2.06h.22c-.02-.32-.07-.79-.13-1.42s-.09-1.12-.09-1.49v-7.88h3.24v27.99h-2.62l-.48-2.65h-.15c-.59.83-1.38,1.55-2.36,2.14-.98.59-2.25.88-3.79.88Zm.52-2.69c2.09,0,3.55-.57,4.4-1.71.85-1.14,1.27-2.87,1.27-5.18v-.59c0-2.46-.41-4.34-1.22-5.65s-2.31-1.97-4.49-1.97c-1.74,0-3.05.69-3.92,2.08-.87,1.39-1.31,3.25-1.31,5.58s.44,4.19,1.31,5.49c.87,1.3,2.19,1.95,3.96,1.95Z"/>
    <path class="cls-2" d="m652.17,132.26c2.41,0,4.19.53,5.34,1.58,1.15,1.06,1.73,2.74,1.73,5.05v13.44h-2.36l-.63-2.8h-.15c-.86,1.08-1.76,1.88-2.71,2.39s-2.25.77-3.92.77c-1.79,0-3.28-.47-4.46-1.42-1.18-.95-1.77-2.42-1.77-4.44s.77-3.48,2.32-4.55,3.93-1.65,7.14-1.75l3.35-.11v-1.18c0-1.64-.36-2.79-1.07-3.42s-1.72-.96-3.02-.96c-1.03,0-2.01.15-2.95.46-.94.31-1.81.66-2.62,1.05l-.99-2.43c.86-.47,1.88-.87,3.06-1.2,1.18-.33,2.41-.5,3.68-.5Zm.96,10.53c-2.46.1-4.15.49-5.1,1.18-.95.69-1.42,1.66-1.42,2.91,0,1.1.34,1.91,1.01,2.43.67.51,1.54.77,2.6.77,1.67,0,3.06-.46,4.16-1.38,1.1-.92,1.66-2.34,1.66-4.26v-1.77l-2.91.11Z"/>
    <path class="cls-2" d="m247.28,198.07h-3.31v-26.3h14.69v2.91h-11.38v9.32h10.68v2.91h-10.68v11.16Z"/>
    <path class="cls-2" d="m264.48,170.93c.49,0,.93.16,1.31.5.38.33.57.85.57,1.56s-.19,1.2-.57,1.55c-.38.34-.82.51-1.31.51-.54,0-.99-.17-1.36-.51-.37-.34-.55-.86-.55-1.55s.18-1.23.55-1.56c.37-.33.82-.5,1.36-.5Zm1.58,7.4v19.74h-3.24v-19.74h3.24Z"/>
    <path class="cls-2" d="m281.47,177.97c2.36,0,4.14.57,5.34,1.71,1.2,1.14,1.8,2.99,1.8,5.54v12.85h-3.2v-12.63c0-3.17-1.47-4.75-4.42-4.75-2.18,0-3.69.61-4.53,1.84-.83,1.23-1.25,2.99-1.25,5.3v10.24h-3.24v-19.74h2.61l.48,2.69h.18c.64-1.03,1.52-1.8,2.65-2.3s2.32-.76,3.57-.76Z"/>
    <path class="cls-2" d="m316.03,177.97c2.23,0,3.9.57,5.01,1.71,1.11,1.14,1.66,2.99,1.66,5.54v12.85h-3.2v-12.71c0-3.12-1.34-4.68-4.01-4.68-1.92,0-3.28.55-4.11,1.66-.82,1.11-1.23,2.71-1.23,4.83v10.9h-3.2v-12.71c0-3.12-1.35-4.68-4.05-4.68-1.99,0-3.36.61-4.12,1.84-.76,1.23-1.14,2.99-1.14,5.3v10.24h-3.24v-19.74h2.61l.48,2.69h.18c.61-1.03,1.44-1.8,2.49-2.3,1.04-.5,2.15-.76,3.33-.76,3.09,0,5.11,1.11,6.04,3.31h.18c.66-1.13,1.57-1.96,2.71-2.5,1.14-.54,2.35-.81,3.63-.81Z"/>
    <path class="cls-2" d="m335.88,178c2.41,0,4.19.53,5.34,1.58,1.15,1.06,1.73,2.74,1.73,5.05v13.44h-2.36l-.63-2.8h-.15c-.86,1.08-1.76,1.88-2.71,2.39s-2.25.77-3.92.77c-1.79,0-3.28-.47-4.46-1.42-1.18-.95-1.77-2.42-1.77-4.44s.77-3.48,2.32-4.55,3.93-1.65,7.14-1.75l3.35-.11v-1.18c0-1.64-.36-2.79-1.07-3.42s-1.72-.96-3.02-.96c-1.03,0-2.01.15-2.95.46-.94.31-1.81.66-2.62,1.05l-.99-2.43c.86-.47,1.88-.87,3.06-1.2,1.18-.33,2.41-.5,3.68-.5Zm.96,10.53c-2.46.1-4.15.49-5.1,1.18-.95.69-1.42,1.66-1.42,2.91,0,1.1.34,1.91,1.01,2.43.67.51,1.54.77,2.6.77,1.67,0,3.06-.46,4.16-1.38,1.1-.92,1.66-2.34,1.66-4.26v-1.77l-2.91.11Z"/>
    <path class="cls-2" d="m357.94,177.97c.37,0,.77.02,1.2.05.43.04.8.09,1.12.17l-.41,2.98c-.32-.07-.67-.13-1.05-.19-.38-.05-.74-.07-1.09-.07-1.01,0-1.95.27-2.84.83s-1.59,1.33-2.12,2.32-.79,2.15-.79,3.48v10.53h-3.24v-19.74h2.65l.37,3.61h.15c.64-1.08,1.46-2.01,2.47-2.8,1.01-.79,2.2-1.18,3.57-1.18Z"/>
    <path class="cls-2" d="m367.23,184.7c0,.39-.02.91-.05,1.55-.04.64-.07,1.19-.09,1.66h.15c.15-.2.37-.48.66-.85.29-.37.59-.74.9-1.12s.57-.69.79-.94l6.3-6.66h3.79l-7.99,8.43,8.54,11.31h-3.9l-6.85-9.21-2.25,1.95v7.26h-3.2v-27.99h3.2v14.62Z"/>
    <path class="cls-2" d="m400.23,178.34v19.74h-2.65l-.48-2.61h-.15c-.64,1.03-1.52,1.79-2.65,2.26-1.13.48-2.33.72-3.61.72-2.38,0-4.17-.57-5.38-1.71-1.2-1.14-1.8-2.96-1.8-5.47v-12.93h3.28v12.71c0,3.14,1.46,4.71,4.38,4.71,2.18,0,3.7-.61,4.55-1.84.85-1.23,1.27-2.99,1.27-5.3v-10.27h3.24Z"/>
    <path class="cls-2" d="m415.6,177.97c2.36,0,4.14.57,5.34,1.71,1.2,1.14,1.8,2.99,1.8,5.54v12.85h-3.2v-12.63c0-3.17-1.47-4.75-4.42-4.75-2.18,0-3.69.61-4.53,1.84-.83,1.23-1.25,2.99-1.25,5.3v10.24h-3.24v-19.74h2.61l.48,2.69h.18c.64-1.03,1.52-1.8,2.65-2.3s2.32-.76,3.57-.76Z"/>
    <path class="cls-2" d="m447.53,180.84h-4.97v17.24h-3.24v-17.24h-3.46v-1.51l3.46-1.11v-1.14c0-2.55.56-4.39,1.69-5.51,1.13-1.12,2.7-1.68,4.71-1.68.79,0,1.5.07,2.15.2.65.14,1.21.29,1.68.46l-.85,2.54c-.39-.12-.85-.25-1.36-.37-.51-.12-1.04-.18-1.58-.18-1.08,0-1.89.36-2.41,1.09-.53.72-.79,1.86-.79,3.41v1.29h4.97v2.5Z"/>
    <path class="cls-2" d="m449.72,178.34h3.46l4.27,11.23c.37.98.7,1.92,1,2.82.29.9.51,1.75.66,2.56h.15c.15-.61.38-1.42.7-2.41.32-.99.65-2,1-3l4.01-11.19h3.5l-8.51,22.47c-.69,1.86-1.58,3.35-2.67,4.46-1.09,1.11-2.6,1.66-4.51,1.66-.59,0-1.1-.03-1.55-.09-.44-.06-.82-.13-1.14-.2v-2.58c.27.05.59.1.98.15.38.05.78.07,1.2.07,1.13,0,2.04-.32,2.74-.96.7-.64,1.25-1.49,1.64-2.54l1.03-2.61-7.96-19.81Z"/>
    <path class="cls-2" d="m475.21,198.07h-3.24v-27.99h3.24v27.99Z"/>
    <path class="cls-2" d="m484.29,184.7c0,.39-.02.91-.05,1.55-.04.64-.07,1.19-.09,1.66h.15c.15-.2.37-.48.66-.85.29-.37.59-.74.9-1.12s.57-.69.79-.94l6.3-6.66h3.79l-7.99,8.43,8.54,11.31h-3.9l-6.85-9.21-2.25,1.95v7.26h-3.2v-27.99h3.2v14.62Z"/>
    <path class="cls-2" d="m502.61,170.93c.49,0,.93.16,1.31.5.38.33.57.85.57,1.56s-.19,1.2-.57,1.55c-.38.34-.82.51-1.31.51-.54,0-.99-.17-1.36-.51-.37-.34-.55-.86-.55-1.55s.18-1.23.55-1.56c.37-.33.82-.5,1.36-.5Zm1.58,7.4v19.74h-3.24v-19.74h3.24Z"/>
    <path class="cls-2" d="m519.6,177.97c2.36,0,4.14.57,5.34,1.71,1.2,1.14,1.8,2.99,1.8,5.54v12.85h-3.2v-12.63c0-3.17-1.47-4.75-4.42-4.75-2.18,0-3.69.61-4.53,1.84-.83,1.23-1.25,2.99-1.25,5.3v10.24h-3.24v-19.74h2.61l.48,2.69h.18c.64-1.03,1.52-1.8,2.65-2.3s2.32-.76,3.57-.76Z"/>
    <path class="cls-2" d="m535.71,184.7c0,.39-.02.91-.05,1.55-.04.64-.07,1.19-.09,1.66h.15c.15-.2.37-.48.66-.85.29-.37.59-.74.9-1.12s.57-.69.79-.94l6.3-6.66h3.79l-7.99,8.43,8.54,11.31h-3.9l-6.85-9.21-2.25,1.95v7.26h-3.2v-27.99h3.2v14.62Z"/>
    <path class="cls-2" d="m568.23,188.17c0,3.27-.83,5.8-2.49,7.59-1.66,1.79-3.9,2.69-6.72,2.69-1.74,0-3.3-.4-4.66-1.2-1.36-.8-2.44-1.96-3.22-3.5-.79-1.54-1.18-3.39-1.18-5.58,0-3.27.82-5.78,2.47-7.55,1.64-1.77,3.88-2.65,6.7-2.65,1.79,0,3.37.4,4.73,1.2,1.36.8,2.43,1.95,3.2,3.46.77,1.51,1.16,3.36,1.16,5.54Zm-14.91,0c0,2.33.46,4.18,1.38,5.54.92,1.36,2.39,2.04,4.4,2.04s3.45-.68,4.38-2.04c.93-1.36,1.4-3.21,1.4-5.54s-.47-4.16-1.4-5.49c-.93-1.33-2.41-1.99-4.42-1.99s-3.48.66-4.38,1.99c-.91,1.33-1.36,3.16-1.36,5.49Z"/>
    <path class="cls-2" d="m594.75,177.97c2.23,0,3.9.57,5.01,1.71,1.11,1.14,1.66,2.99,1.66,5.54v12.85h-3.2v-12.71c0-3.12-1.34-4.68-4.01-4.68-1.92,0-3.28.55-4.11,1.66-.82,1.11-1.23,2.71-1.23,4.83v10.9h-3.2v-12.71c0-3.12-1.35-4.68-4.05-4.68-1.99,0-3.36.61-4.12,1.84-.76,1.23-1.14,2.99-1.14,5.3v10.24h-3.24v-19.74h2.61l.48,2.69h.18c.61-1.03,1.44-1.8,2.49-2.3,1.04-.5,2.15-.76,3.33-.76,3.09,0,5.11,1.11,6.04,3.31h.18c.66-1.13,1.57-1.96,2.71-2.5,1.14-.54,2.35-.81,3.63-.81Z"/>
    <path class="cls-2" d="m623.7,178.34v19.74h-2.65l-.48-2.61h-.15c-.64,1.03-1.52,1.79-2.65,2.26-1.13.48-2.33.72-3.61.72-2.38,0-4.17-.57-5.38-1.71-1.2-1.14-1.8-2.96-1.8-5.47v-12.93h3.28v12.71c0,3.14,1.46,4.71,4.38,4.71,2.18,0,3.7-.61,4.55-1.84.85-1.23,1.27-2.99,1.27-5.3v-10.27h3.24Z"/>
    <path class="cls-2" d="m646.15,178.34v19.74h-2.65l-.48-2.61h-.15c-.64,1.03-1.52,1.79-2.65,2.26-1.13.48-2.33.72-3.61.72-2.38,0-4.17-.57-5.38-1.71-1.2-1.14-1.8-2.96-1.8-5.47v-12.93h3.28v12.71c0,3.14,1.46,4.71,4.38,4.71,2.18,0,3.7-.61,4.55-1.84.85-1.23,1.27-2.99,1.27-5.3v-10.27h3.24Z"/>
    <path class="cls-2" d="m661.52,177.97c2.36,0,4.14.57,5.34,1.71,1.2,1.14,1.8,2.99,1.8,5.54v12.85h-3.2v-12.63c0-3.17-1.47-4.75-4.42-4.75-2.18,0-3.69.61-4.53,1.84-.83,1.23-1.25,2.99-1.25,5.3v10.24h-3.24v-19.74h2.61l.48,2.69h.18c.64-1.03,1.52-1.8,2.65-2.3s2.32-.76,3.57-.76Z"/>
    <path class="cls-2" d="m676.05,170.93c.49,0,.93.16,1.31.5.38.33.57.85.57,1.56s-.19,1.2-.57,1.55c-.38.34-.82.51-1.31.51-.54,0-.99-.17-1.36-.51-.37-.34-.55-.86-.55-1.55s.18-1.23.55-1.56c.37-.33.82-.5,1.36-.5Zm1.58,7.4v19.74h-3.24v-19.74h3.24Z"/>
  </g>
</svg>